# xmcd
#
# Track frame offsets:
# 150
# 10242
# 18485
# 31477
# 39332
# 52205
# 56857
# 67855
# 77535
# 91207
# 100667
# 110397
# 120395
# 131095
# 140515
# 150197
# 158082
# 166792
# 180202
# 189250
#
# Disc length: 2680 seconds
#
#
# Revision: 0
# Processed by: cddbd v1.5.1PL0 Copyright (c) Steve Scherf et al.
# Submitted via: FreeRIP 2.942 
#
DISCID=ec0a7614
DTITLE=Faron Young - 20 Greatest Hits
DYEAR=1997
DGENRE=Country
TTITLE0=Country Girl
TTITLE1=My Dreams
TTITLE2=Apartment # 9
TTITLE3=Your Cheatin' Heart
TTITLE4=Seasons Come Seasons Go
TTITLE5=Beverly Hillbillies
TTITLE6=Life Is Like A Picture
TTITLE7=Busted
TTITLE8=Chapel In The Moonlight
TTITLE9=Just A Little Lovin'
TTITLE10=Live Fast, Love Hard, Die Young
TTITLE11=Unmitigated Gall
TTITLE12=Back Street Affair
TTITLE13=Sittin' In An All Night Cafe
TTITLE14=King Of The Road
TTITLE15=Hey Mr. Bluebird
TTITLE16=Mexican Joe
TTITLE17=Swining Doors
TTITLE18=Dance Her By Me
TTITLE19=The Other Woman
EXTD=Highland Records
EXTT0=
EXTT1=
EXTT2=
EXTT3=
EXTT4=
EXTT5=
EXTT6=
EXTT7=
EXTT8=
EXTT9=
EXTT10=
EXTT11=
EXTT12=
EXTT13=
EXTT14=
EXTT15=
EXTT16=
EXTT17=
EXTT18=
EXTT19=
PLAYORDER=
